<svg xmlns="http://www.w3.org/2000/svg" xmlns:xlink="http://www.w3.org/1999/xlink" viewBox="0 0 239.68 109.65"><defs><style>.cls-1,.cls-4{fill:none;stroke:#f7ac4b;stroke-miterlimit:10;}.cls-1{stroke-width:2.83px;}.cls-2{fill:#010000;}.cls-3{fill:url(#Dégradé_sans_nom_52);}.cls-4{stroke-width:2.83px;}</style><linearGradient id="Dégradé_sans_nom_52" x1="124.64" y1="64.1" x2="268.26" y2="64.1" gradientUnits="userSpaceOnUse"><stop offset="0" stop-color="#fcc44d"/><stop offset="0.3" stop-color="#f7a44c"/><stop offset="0.76" stop-color="#ef774b"/><stop offset="1" stop-color="#ec654b"/></linearGradient></defs><title>2019.09.11_SOON_logo_final_vect</title><g id="Calque_3" data-name="Calque 3"><path class="cls-1" d="M101.82,276.47" transform="translate(-29.59 -19.84)"/><path d="M29.59,128.7v-1.92a4.32,4.32,0,0,0,.79.52,5.46,5.46,0,0,0,1,.39,7.36,7.36,0,0,0,1,.25,5.41,5.41,0,0,0,.94.09,3.75,3.75,0,0,0,2.25-.56,1.9,1.9,0,0,0,.74-1.6,1.83,1.83,0,0,0-.25-1,2.68,2.68,0,0,0-.68-.76,7,7,0,0,0-1-.66l-1.29-.67c-.48-.24-.93-.49-1.35-.74a6,6,0,0,1-1.1-.83,3.56,3.56,0,0,1-.73-1,3.13,3.13,0,0,1-.27-1.35,3.16,3.16,0,0,1,.42-1.65,3.58,3.58,0,0,1,1.1-1.16,5,5,0,0,1,1.54-.68,7.53,7.53,0,0,1,1.77-.22,6.71,6.71,0,0,1,3,.5v1.83a5.94,5.94,0,0,0-4.22-.75,3.09,3.09,0,0,0-1,.37,2.11,2.11,0,0,0-.68.65,1.75,1.75,0,0,0-.26,1,2,2,0,0,0,.2.92,2.24,2.24,0,0,0,.58.7,5.58,5.58,0,0,0,.95.62l1.28.66c.5.25,1,.51,1.42.78a6.71,6.71,0,0,1,1.17.9,4,4,0,0,1,.8,1.09,3,3,0,0,1,.29,1.38,3.5,3.5,0,0,1-.4,1.74,3.43,3.43,0,0,1-1.08,1.16,4.86,4.86,0,0,1-1.58.64,8.74,8.74,0,0,1-1.88.2c-.22,0-.49,0-.81-.05s-.65-.09-1-.16a8.78,8.78,0,0,1-.95-.25A3.35,3.35,0,0,1,29.59,128.7Z" transform="translate(-29.59 -19.84)"/><path d="M44.72,129.49a4.57,4.57,0,0,1-3.51-1.39,5.15,5.15,0,0,1-1.32-3.69,5.36,5.36,0,0,1,1.37-3.9A4.9,4.9,0,0,1,45,119.1a4.45,4.45,0,0,1,3.46,1.37,6.21,6.21,0,0,1-.09,7.59A4.73,4.73,0,0,1,44.72,129.49Zm.12-9.05a3,3,0,0,0-2.43,1,4.3,4.3,0,0,0-.89,2.87,4,4,0,0,0,.9,2.78,3.07,3.07,0,0,0,2.42,1,2.88,2.88,0,0,0,2.36-1,4.27,4.27,0,0,0,.83-2.83,4.36,4.36,0,0,0-.83-2.87A2.89,2.89,0,0,0,44.84,120.44Z" transform="translate(-29.59 -19.84)"/><path d="M59,128.8a5.15,5.15,0,0,1-2.71.69,4.5,4.5,0,0,1-3.43-1.38,5,5,0,0,1-1.3-3.58,5.48,5.48,0,0,1,1.41-3.94,4.9,4.9,0,0,1,3.74-1.49,5.1,5.1,0,0,1,2.31.49v1.63a4,4,0,0,0-2.36-.78,3.19,3.19,0,0,0-2.5,1.09,4.13,4.13,0,0,0-1,2.86,3.92,3.92,0,0,0,.91,2.75,3.13,3.13,0,0,0,2.46,1,3.93,3.93,0,0,0,2.44-.86Z" transform="translate(-29.59 -19.84)"/><path d="M62.07,116.82a1,1,0,0,1-.73-.29,1,1,0,0,1,.73-1.78,1,1,0,0,1,.74.3,1,1,0,0,1,0,1.47A1,1,0,0,1,62.07,116.82Zm.78,9.67c0,.91.35,1.36,1,1.36a2.61,2.61,0,0,0,.77-.1v1.43l-.49.09a4.4,4.4,0,0,1-.65,0,2.65,2.65,0,0,1-.89-.16,1.91,1.91,0,0,1-.72-.47,2.44,2.44,0,0,1-.48-.8,3.21,3.21,0,0,1-.18-1.12v-7.43h1.59Z" transform="translate(-29.59 -19.84)"/><path d="M73.49,129.26H71.91v-1.55h0a3.33,3.33,0,0,1-3.06,1.78,3.29,3.29,0,0,1-2.32-.78,2.76,2.76,0,0,1-.83-2.09q0-2.78,3.27-3.23l3-.42c0-1.69-.69-2.53-2-2.53a4.94,4.94,0,0,0-3.24,1.22V120A6.17,6.17,0,0,1,70,119.1c2.33,0,3.49,1.24,3.49,3.7Zm-1.58-5-2.4.33a3.71,3.71,0,0,0-1.66.55,1.56,1.56,0,0,0-.57,1.39,1.52,1.52,0,0,0,.52,1.18,2,2,0,0,0,1.38.46,2.55,2.55,0,0,0,2-.83,3,3,0,0,0,.77-2.09Z" transform="translate(-29.59 -19.84)"/><path d="M78,126.49c0,.91.35,1.36,1.06,1.36a2.54,2.54,0,0,0,.76-.1v1.43l-.49.09a4.37,4.37,0,0,1-.64,0,2.56,2.56,0,0,1-.89-.16,1.84,1.84,0,0,1-.72-.47,2.3,2.3,0,0,1-.49-.8,3.21,3.21,0,0,1-.18-1.12v-12.2H78Z" transform="translate(-29.59 -19.84)"/><path d="M98.37,129.26h-2l-7.15-11.08a4.78,4.78,0,0,1-.45-.87h0a15.13,15.13,0,0,1,.07,1.91v10H87.16v-13.9h2.12l7,10.9q.43.69.57.93h0a15.75,15.75,0,0,1-.09-2v-9.79h1.63Z" transform="translate(-29.59 -19.84)"/><path d="M109.77,124.69h-7a3.72,3.72,0,0,0,.9,2.56,3.06,3.06,0,0,0,2.34.9,4.91,4.91,0,0,0,3.08-1.1v1.49a5.77,5.77,0,0,1-3.46,1,4.19,4.19,0,0,1-3.3-1.35,5.54,5.54,0,0,1-1.2-3.81,5.39,5.39,0,0,1,1.31-3.77,4.22,4.22,0,0,1,3.26-1.46,3.72,3.72,0,0,1,3,1.26,5.27,5.27,0,0,1,1.07,3.5Zm-1.63-1.34a3.28,3.28,0,0,0-.66-2.14,2.27,2.27,0,0,0-1.82-.77,2.6,2.6,0,0,0-1.91.8,3.74,3.74,0,0,0-1,2.11Z" transform="translate(-29.59 -19.84)"/><path d="M116.77,129.16a3,3,0,0,1-1.48.31c-1.74,0-2.6-1-2.6-2.91v-5.87H111v-1.35h1.71v-2.43l1.58-.51v2.94h2.5v1.35h-2.5v5.59a2.38,2.38,0,0,0,.34,1.43,1.37,1.37,0,0,0,1.13.42,1.65,1.65,0,0,0,1-.33Z" transform="translate(-29.59 -19.84)"/><path d="M131.39,119.34l-3,9.92h-1.65l-2-7.1a4.85,4.85,0,0,1-.16-.93h0a3.6,3.6,0,0,1-.2.91l-2.22,7.12h-1.59l-3-9.92h1.67l2,7.46a4.26,4.26,0,0,1,.14.89h.07a4,4,0,0,1,.18-.91l2.28-7.44h1.46l2,7.48a5.26,5.26,0,0,1,.15.89h.07a4.42,4.42,0,0,1,.17-.89l2-7.48Z" transform="translate(-29.59 -19.84)"/><path d="M137.32,129.49a4.6,4.6,0,0,1-3.51-1.39,5.19,5.19,0,0,1-1.31-3.69,5.35,5.35,0,0,1,1.36-3.9,4.92,4.92,0,0,1,3.7-1.41,4.46,4.46,0,0,1,3.46,1.37,5.41,5.41,0,0,1,1.24,3.79,5.3,5.3,0,0,1-1.34,3.8A4.7,4.7,0,0,1,137.32,129.49Zm.12-9.05a3,3,0,0,0-2.42,1,4.25,4.25,0,0,0-.89,2.87,4,4,0,0,0,.9,2.78,3,3,0,0,0,2.41,1,2.89,2.89,0,0,0,2.37-1,4.32,4.32,0,0,0,.83-2.83,4.42,4.42,0,0,0-.83-2.87A2.89,2.89,0,0,0,137.44,120.44Z" transform="translate(-29.59 -19.84)"/><path d="M150,120.94a2,2,0,0,0-1.21-.32,2,2,0,0,0-1.7,1,4.48,4.48,0,0,0-.68,2.62v5.06H144.8v-9.92h1.59v2h0a3.44,3.44,0,0,1,1-1.63,2.35,2.35,0,0,1,1.56-.59,2.61,2.61,0,0,1,.95.14Z" transform="translate(-29.59 -19.84)"/><path d="M159.94,129.26h-2.23l-4.38-4.77h0v4.77H151.7V114.57h1.59v9.31h0l4.16-4.54h2.09l-4.6,4.78Z" transform="translate(-29.59 -19.84)"/><path d="M171.15,129.49a4.61,4.61,0,0,1-3.52-1.39,5.19,5.19,0,0,1-1.31-3.69,5.36,5.36,0,0,1,1.37-3.9,4.9,4.9,0,0,1,3.69-1.41,4.45,4.45,0,0,1,3.46,1.37,5.41,5.41,0,0,1,1.25,3.79,5.34,5.34,0,0,1-1.34,3.8A4.73,4.73,0,0,1,171.15,129.49Zm.11-9.05a3,3,0,0,0-2.42,1,4.3,4.3,0,0,0-.89,2.87,4,4,0,0,0,.9,2.78,3,3,0,0,0,2.41,1,2.89,2.89,0,0,0,2.37-1,4.32,4.32,0,0,0,.83-2.83,4.42,4.42,0,0,0-.83-2.87A2.89,2.89,0,0,0,171.26,120.44Z" transform="translate(-29.59 -19.84)"/><path d="M183.17,116a2.16,2.16,0,0,0-1.06-.26c-1.11,0-1.66.7-1.66,2.1v1.54h2.32v1.35h-2.32v8.57h-1.58v-8.57h-1.7v-1.35h1.7v-1.61a3.36,3.36,0,0,1,.9-2.47,3.46,3.46,0,0,1,3.4-.73Z" transform="translate(-29.59 -19.84)"/><path d="M202.74,129.26h-1.62v-9.32c0-.37,0-.79,0-1.26s.05-1,.1-1.51h0a5.19,5.19,0,0,1-.17.52c-.08.19-.16.38-.25.56s-.17.33-.24.48a3.18,3.18,0,0,0-.16.31l-3.57,6.59H196l-3.57-6.57c0-.07-.08-.18-.16-.33l-.25-.48c-.08-.18-.16-.36-.23-.55a3.23,3.23,0,0,1-.17-.53h0c0,.28,0,.66.06,1.13s0,1,0,1.66v9.3h-1.57v-13.9h2l3.61,6.61c.15.29.28.56.39.82s.19.47.25.65h.05c.07-.19.15-.42.26-.67a8,8,0,0,1,.41-.84l3.6-6.57h2Z" transform="translate(-29.59 -19.84)"/><path d="M213.27,129.26h-1.58v-1.55h0a3.33,3.33,0,0,1-3.06,1.78,3.29,3.29,0,0,1-2.32-.78,2.76,2.76,0,0,1-.83-2.09q0-2.78,3.27-3.23l3-.42c0-1.69-.69-2.53-2.05-2.53a4.94,4.94,0,0,0-3.24,1.22V120a6.17,6.17,0,0,1,3.38-.93c2.33,0,3.49,1.24,3.49,3.7Zm-1.58-5-2.4.33a3.71,3.71,0,0,0-1.66.55,1.56,1.56,0,0,0-.57,1.39,1.52,1.52,0,0,0,.52,1.18,2,2,0,0,0,1.38.46,2.51,2.51,0,0,0,1.95-.83,2.93,2.93,0,0,0,.78-2.09Z" transform="translate(-29.59 -19.84)"/><path d="M223,128.8a5.15,5.15,0,0,1-2.71.69,4.5,4.5,0,0,1-3.43-1.38,5,5,0,0,1-1.3-3.58,5.52,5.52,0,0,1,1.4-3.94,4.93,4.93,0,0,1,3.75-1.49,5.13,5.13,0,0,1,2.31.49v1.63a4,4,0,0,0-2.36-.78,3.19,3.19,0,0,0-2.5,1.09,4.13,4.13,0,0,0-1,2.86,3.92,3.92,0,0,0,.91,2.75,3.13,3.13,0,0,0,2.46,1,4,4,0,0,0,2.44-.86Z" transform="translate(-29.59 -19.84)"/><path d="M233.67,129.26h-1.59v-5.72c0-2.07-.77-3.1-2.31-3.1a2.5,2.5,0,0,0-2,.9,3.32,3.32,0,0,0-.8,2.3v5.62h-1.59V114.57H227V121h0a3.62,3.62,0,0,1,3.26-1.88q3.35,0,3.35,4Z" transform="translate(-29.59 -19.84)"/><path d="M237.37,116.82a1,1,0,0,1-.73-.29,1,1,0,0,1,.73-1.78,1,1,0,0,1,.74.3,1,1,0,0,1,0,1.47A1,1,0,0,1,237.37,116.82Zm.78,9.67c0,.91.35,1.36,1,1.36a2.61,2.61,0,0,0,.77-.1v1.43l-.49.09a4.51,4.51,0,0,1-.65,0,2.65,2.65,0,0,1-.89-.16,1.84,1.84,0,0,1-.72-.47,2.44,2.44,0,0,1-.48-.8,3.21,3.21,0,0,1-.18-1.12v-7.43h1.59Z" transform="translate(-29.59 -19.84)"/><path d="M249.93,129.26h-1.59V123.6c0-2.11-.77-3.16-2.31-3.16a2.5,2.5,0,0,0-2,.9,3.3,3.3,0,0,0-.78,2.26v5.66h-1.59v-9.92h1.59V121h0a3.58,3.58,0,0,1,3.25-1.88,3,3,0,0,1,2.49,1.05,4.69,4.69,0,0,1,.87,3Z" transform="translate(-29.59 -19.84)"/><path d="M260.89,124.69h-7a3.72,3.72,0,0,0,.89,2.56,3.08,3.08,0,0,0,2.35.9,4.93,4.93,0,0,0,3.08-1.1v1.49a5.79,5.79,0,0,1-3.46,1,4.22,4.22,0,0,1-3.31-1.35,5.54,5.54,0,0,1-1.2-3.81,5.4,5.4,0,0,1,1.32-3.77,4.21,4.21,0,0,1,3.26-1.46,3.73,3.73,0,0,1,3,1.26,5.26,5.26,0,0,1,1.06,3.5Zm-1.62-1.34a3.22,3.22,0,0,0-.67-2.14,2.25,2.25,0,0,0-1.81-.77,2.58,2.58,0,0,0-1.91.8,3.61,3.61,0,0,0-1,2.11Z" transform="translate(-29.59 -19.84)"/><path d="M262.7,128.9v-1.71a4.69,4.69,0,0,0,2.86,1c1.39,0,2.09-.46,2.09-1.39a1.23,1.23,0,0,0-.18-.68,1.9,1.9,0,0,0-.49-.49,4.27,4.27,0,0,0-.71-.38l-.89-.35c-.44-.18-.82-.35-1.16-.53a3.62,3.62,0,0,1-.83-.6,2.23,2.23,0,0,1-.5-.76,2.59,2.59,0,0,1-.17-1,2.28,2.28,0,0,1,.32-1.23,2.83,2.83,0,0,1,.85-.91,3.92,3.92,0,0,1,1.21-.54,5.59,5.59,0,0,1,1.42-.19,5.65,5.65,0,0,1,2.3.45v1.61a4.48,4.48,0,0,0-2.52-.72,2.83,2.83,0,0,0-.8.1,2.09,2.09,0,0,0-.62.29,1.4,1.4,0,0,0-.4.44,1.2,1.2,0,0,0-.14.57,1.38,1.38,0,0,0,.14.64,1.55,1.55,0,0,0,.42.47,3.37,3.37,0,0,0,.66.37l.88.36a12.25,12.25,0,0,1,1.18.51,3.76,3.76,0,0,1,.89.61,2.38,2.38,0,0,1,.57.77,2.49,2.49,0,0,1,.2,1,2.41,2.41,0,0,1-.33,1.28,2.77,2.77,0,0,1-.87.9,3.94,3.94,0,0,1-1.25.54,6.45,6.45,0,0,1-1.48.17A5.66,5.66,0,0,1,262.7,128.9Z" transform="translate(-29.59 -19.84)"/><path class="cls-2" d="M30.84,104.63V97.7a15.6,15.6,0,0,0,4.67,2.37,16.84,16.84,0,0,0,5.09.79,13.47,13.47,0,0,0,2.63-.23,6.75,6.75,0,0,0,1.88-.66,3.29,3.29,0,0,0,1.13-1,2.31,2.31,0,0,0,.37-1.25A2.46,2.46,0,0,0,46,96.1a6.18,6.18,0,0,0-1.62-1.32A18.49,18.49,0,0,0,42,93.61c-.94-.37-2-.76-3-1.15a15.63,15.63,0,0,1-6.19-3.7,7.45,7.45,0,0,1-2-5.28,7.64,7.64,0,0,1,1.11-4.17,8.83,8.83,0,0,1,3-2.86,14.63,14.63,0,0,1,4.44-1.66,26.11,26.11,0,0,1,5.33-.53,37.5,37.5,0,0,1,4.91.29,22.34,22.34,0,0,1,3.94.9v6.47a12.06,12.06,0,0,0-1.94-1,17.92,17.92,0,0,0-4.37-1.08,17.22,17.22,0,0,0-2.09-.13,11.72,11.72,0,0,0-2.47.23,7,7,0,0,0-1.88.63,3.56,3.56,0,0,0-1.18,1,2.12,2.12,0,0,0-.42,1.29,2.23,2.23,0,0,0,.46,1.39,5.26,5.26,0,0,0,1.34,1.17A14.54,14.54,0,0,0,43,86.54c.82.36,1.75.72,2.79,1.1a33.9,33.9,0,0,1,3.82,1.65,13.92,13.92,0,0,1,2.9,2,7.54,7.54,0,0,1,1.85,2.53A7.87,7.87,0,0,1,55,97.1a8,8,0,0,1-1.13,4.36,8.48,8.48,0,0,1-3.05,2.86,14.36,14.36,0,0,1-4.48,1.57,30.23,30.23,0,0,1-5.4.47,34,34,0,0,1-5.55-.43A18.52,18.52,0,0,1,30.84,104.63Z" transform="translate(-29.59 -19.84)"/><path class="cls-2" d="M78.34,106.36q-7.61,0-12.4-4.34a14.52,14.52,0,0,1-4.8-11.31A15.57,15.57,0,0,1,66,78.8q4.86-4.55,12.9-4.54,7.57,0,12.26,4.35a14.94,14.94,0,0,1,4.69,11.47A15.29,15.29,0,0,1,91,101.88Q86.14,106.37,78.34,106.36Zm.35-26.08A8.51,8.51,0,0,0,72,83a10.56,10.56,0,0,0-2.47,7.3A10.39,10.39,0,0,0,72,97.64a9.33,9.33,0,0,0,13,.07,10.19,10.19,0,0,0,2.43-7.24c0-3.22-.79-5.72-2.35-7.51A8.1,8.1,0,0,0,78.69,80.28Z" transform="translate(-29.59 -19.84)"/><path class="cls-2" d="M119.24,106.36q-7.62,0-12.41-4.34A14.55,14.55,0,0,1,102,90.71a15.54,15.54,0,0,1,4.87-11.91q4.86-4.55,12.9-4.54,7.57,0,12.26,4.35a14.93,14.93,0,0,1,4.68,11.47,15.29,15.29,0,0,1-4.85,11.8Q127,106.37,119.24,106.36Zm.34-26.08A8.51,8.51,0,0,0,112.91,83a10.56,10.56,0,0,0-2.47,7.3,10.39,10.39,0,0,0,2.47,7.3,9.33,9.33,0,0,0,13,.07c1.62-1.73,2.42-4.15,2.42-7.24S127.57,84.75,126,83A8.1,8.1,0,0,0,119.58,80.28Z" transform="translate(-29.59 -19.84)"/><path class="cls-2" d="M177,105.82H169l-14.6-19.5a26.8,26.8,0,0,1-1.78-2.58h-.1a46.53,46.53,0,0,1,.2,5v17.06h-7.54v-31h8.6l14.06,18.9c.64.85,1.24,1.69,1.78,2.53h.1a29.19,29.19,0,0,1-.2-4.26V74.78H177Z" transform="translate(-29.59 -19.84)"/><path class="cls-3" d="M267.51,37.61A3.66,3.66,0,0,0,261,40.16L236.88,52.92a5.21,5.21,0,0,0-6-1.12L209.53,27.5a5,5,0,1,0-8,.59,5.49,5.49,0,0,0,.55.53L191.44,52.1a6.26,6.26,0,0,0-6.68,4.78s0,.06,0,.09H166a6.26,6.26,0,0,0-8.53-5.13L148.43,39a5,5,0,1,0-2.33,1.61l9.07,12.86a6.7,6.7,0,0,0-1,1.49l-21-3.41a4.35,4.35,0,0,0-.79-1.84,4.29,4.29,0,1,0-.81,6,4.21,4.21,0,0,0,1.16-1.37l20.85,3.38A6.26,6.26,0,0,0,165.7,59.8h19.07a6.26,6.26,0,0,0,4.63,4.62,6,6,0,0,0,2.06.14l6,11.17a8.6,8.6,0,0,0,2.05,14.78l-2.38,10.59a3.58,3.58,0,0,0-1.58.68,3.67,3.67,0,1,0,5.14.69,3.78,3.78,0,0,0-.8-.75l2.38-10.58a8.59,8.59,0,0,0,8.05-4.47L231,93.53A6.87,6.87,0,1,0,243.83,91L260,77.18a3.66,3.66,0,1,0-.51-6.24l-21.3-13a5.24,5.24,0,0,0,.08-2.52l24.06-12.75a3.66,3.66,0,0,0,5.23-5.06ZM207.4,29.37l21.32,24.31a5.1,5.1,0,0,0-.7,1.65l-31.13,1.3A6.27,6.27,0,0,0,194.15,53l10.49-23.22A5,5,0,0,0,207.4,29.37ZM197,59.78a3,3,0,0,0,.06-.32l31.12-1.3c.07.2.13.4.22.6L208.4,76a8.64,8.64,0,0,0-8.4-1.59l-5.82-10.74A6.19,6.19,0,0,0,197,59.78ZM211.3,84a8.6,8.6,0,0,0-1.08-5.85l20-17.25a5.23,5.23,0,0,0,6.07-.18c.13-.11.24-.24.37-.35l21.3,13a3.61,3.61,0,0,0,.15,1.66L242,88.86a6.87,6.87,0,0,0-8.64.21,7,7,0,0,0-1.47,1.77Z" transform="translate(-29.59 -19.84)"/><path class="cls-4" d="M648.35,230.46" transform="translate(-29.59 -19.84)"/></g></svg>